<svg xmlns="http://www.w3.org/2000/svg" xmlns:xlink="http://www.w3.org/1999/xlink" viewBox="0 0 119.48 119.2"><defs><style>.cls-1{fill:#f2b23c;}.cls-2{clip-path:url(#clip-path);}</style><clipPath id="clip-path"><path class="cls-1" d="M117.81,119.2a1.56,1.56,0,0,0,1.67-1.66V109a11.15,11.15,0,0,0-5.83-9.5c-11.77-6.22-20.54-9.64-28.46-11.07L84,88.16l1.2-1.64a1.22,1.22,0,0,0,.31-1.23l-1.93-7.67.21-.3c.6-.85,1.17-1.73,1.71-2.63l.14-.25.28-.1c7-2.41,10.72-6.47,11.45-12.42l.07-.62.62-.07a6.24,6.24,0,0,0,5.45-6v-15a6.14,6.14,0,0,0-5.36-6l-.67-.08,0-.67c-.26-5.7-1.68-13.94-6.91-20.83C84.13,4.25,73.79,0,59.74,0S35.35,4.25,29,12.63c-5.23,6.89-6.65,15.13-6.91,20.83l0,.67-.67.08a6.06,6.06,0,0,0-5.36,6v15a6.24,6.24,0,0,0,6.27,6h3a5.77,5.77,0,0,0,2.42-.55l.91-.43.2,1a43.18,43.18,0,0,0,6.91,16l.21.3L34,85.21a2.39,2.39,0,0,0,.36,1.39l1.13,1.56-1.24.22C26.37,89.81,17.6,93.23,5.85,99.44A10.33,10.33,0,0,0,0,109v8.59a1.56,1.56,0,0,0,1.67,1.66Zm-66.45-15-3-4.1L40,88.57l-.11-.1-.12-.14-2.26-3.08,1-4.33,1.26,1.28A28.93,28.93,0,0,0,56.14,91l1,.15Zm8.39-10.4,5.31,12.13H54.35Zm-8,22.11,1.34-6.66h13.2l1.3,6.66ZM62.31,91.12l1-.15A28.93,28.93,0,0,0,79.7,82.2L81,80.92l1,4.33-2.23,3a1.27,1.27,0,0,0-.24.28L68.12,104.16Zm49.83,11.13a7.73,7.73,0,0,1,4,6.7v6.92h-45l-1.6-8L81.85,91l.48.07C90.61,92.41,100.08,95.94,112.14,102.25ZM93.94,62.07A9.79,9.79,0,0,1,90,68.57l-2.19,1.67,1-2.57a42.58,42.58,0,0,0,1.85-6.45l.2-1,.92.45a5.75,5.75,0,0,0,1.52.49l.76.14Zm3.25-24.78A2.78,2.78,0,0,1,99.93,40V55a2.78,2.78,0,0,1-2.74,2.73h-3A2.77,2.77,0,0,1,91.45,55V40a2.77,2.77,0,0,1,2.73-2.73ZM27.84,55a2.79,2.79,0,0,1-2.74,2.73h-3A2.78,2.78,0,0,1,19.35,55V40a2.77,2.77,0,0,1,2.74-2.73h3A2.78,2.78,0,0,1,27.84,40Zm.69-21-.17,1-.92-.39a6,6,0,0,0-1.37-.4l-.69-.11,0-.7c.49-11.5,4.87-19.87,13-24.88,7-4.32,15.46-5.22,21.31-5.22s14.3.9,21.31,5.22c8.15,5,12.53,13.38,13,24.88l0,.7-.69.11a6,6,0,0,0-1.37.41l-.91.39-.18-1a31.73,31.73,0,0,0-62.42,0Zm2.84,19.56v-14a28.37,28.37,0,0,1,56.74,0v14a37.32,37.32,0,0,1-4.47,17.75l-.16.3-.32.09C78,73.21,71,73.92,61.74,73.92a1.67,1.67,0,0,0,0,3.33A104.54,104.54,0,0,0,78.63,76.1l2-.33-1.26,1.6a32,32,0,0,1-2.75,3.1C71.8,85,66.17,87.58,60.75,87.88h-.17l-.16,0a1.88,1.88,0,0,0-1.3,0l-.16.07h-.18a23.21,23.21,0,0,1-10-3,32.86,32.86,0,0,1-9.14-8l-.55-.55-.14,0-.15-.2A37.3,37.3,0,0,1,31.37,53.61ZM3.33,109a7.22,7.22,0,0,1,4-6.5c12.57-6.66,21.82-10.11,30-11.17l.47-.06,12.15,16.67-1.6,8h-45Z"/></clipPath></defs><title>(PC)最終版</title><g id="_7" data-name="7"><path class="cls-1" d="M117.81,119.2a1.56,1.56,0,0,0,1.67-1.66V109a11.15,11.15,0,0,0-5.83-9.5c-11.77-6.22-20.54-9.64-28.46-11.07L84,88.16l1.2-1.64a1.22,1.22,0,0,0,.31-1.23l-1.93-7.67.21-.3c.6-.85,1.17-1.73,1.71-2.63l.14-.25.28-.1c7-2.41,10.72-6.47,11.45-12.42l.07-.62.62-.07a6.24,6.24,0,0,0,5.45-6v-15a6.14,6.14,0,0,0-5.36-6l-.67-.08,0-.67c-.26-5.7-1.68-13.94-6.91-20.83C84.13,4.25,73.79,0,59.74,0S35.35,4.25,29,12.63c-5.23,6.89-6.65,15.13-6.91,20.83l0,.67-.67.08a6.06,6.06,0,0,0-5.36,6v15a6.24,6.24,0,0,0,6.27,6h3a5.77,5.77,0,0,0,2.42-.55l.91-.43.2,1a43.18,43.18,0,0,0,6.91,16l.21.3L34,85.21a2.39,2.39,0,0,0,.36,1.39l1.13,1.56-1.24.22C26.37,89.81,17.6,93.23,5.85,99.44A10.33,10.33,0,0,0,0,109v8.59a1.56,1.56,0,0,0,1.67,1.66Zm-66.45-15-3-4.1L40,88.57l-.11-.1-.12-.14-2.26-3.08,1-4.33,1.26,1.28A28.93,28.93,0,0,0,56.14,91l1,.15Zm8.39-10.4,5.31,12.13H54.35Zm-8,22.11,1.34-6.66h13.2l1.3,6.66ZM62.31,91.12l1-.15A28.93,28.93,0,0,0,79.7,82.2L81,80.92l1,4.33-2.23,3a1.27,1.27,0,0,0-.24.28L68.12,104.16Zm49.83,11.13a7.73,7.73,0,0,1,4,6.7v6.92h-45l-1.6-8L81.85,91l.48.07C90.61,92.41,100.08,95.94,112.14,102.25ZM93.94,62.07A9.79,9.79,0,0,1,90,68.57l-2.19,1.67,1-2.57a42.58,42.58,0,0,0,1.85-6.45l.2-1,.92.45a5.75,5.75,0,0,0,1.52.49l.76.14Zm3.25-24.78A2.78,2.78,0,0,1,99.93,40V55a2.78,2.78,0,0,1-2.74,2.73h-3A2.77,2.77,0,0,1,91.45,55V40a2.77,2.77,0,0,1,2.73-2.73ZM27.84,55a2.79,2.79,0,0,1-2.74,2.73h-3A2.78,2.78,0,0,1,19.35,55V40a2.77,2.77,0,0,1,2.74-2.73h3A2.78,2.78,0,0,1,27.84,40Zm.69-21-.17,1-.92-.39a6,6,0,0,0-1.37-.4l-.69-.11,0-.7c.49-11.5,4.87-19.87,13-24.88,7-4.32,15.46-5.22,21.31-5.22s14.3.9,21.31,5.22c8.15,5,12.53,13.38,13,24.88l0,.7-.69.11a6,6,0,0,0-1.37.41l-.91.39-.18-1a31.73,31.73,0,0,0-62.42,0Zm2.84,19.56v-14a28.37,28.37,0,0,1,56.74,0v14a37.32,37.32,0,0,1-4.47,17.75l-.16.3-.32.09C78,73.21,71,73.92,61.74,73.92a1.67,1.67,0,0,0,0,3.33A104.54,104.54,0,0,0,78.63,76.1l2-.33-1.26,1.6a32,32,0,0,1-2.75,3.1C71.8,85,66.17,87.58,60.75,87.88h-.17l-.16,0a1.88,1.88,0,0,0-1.3,0l-.16.07h-.18a23.21,23.21,0,0,1-10-3,32.86,32.86,0,0,1-9.14-8l-.55-.55-.14,0-.15-.2A37.3,37.3,0,0,1,31.37,53.61ZM3.33,109a7.22,7.22,0,0,1,4-6.5c12.57-6.66,21.82-10.11,30-11.17l.47-.06,12.15,16.67-1.6,8h-45Z"/><g class="cls-2"><rect class="cls-1" x="3.33" y="91.22" width="0.08" height="24.65"/><rect class="cls-1" x="3.41" y="91.22" width="1.14" height="24.65"/><rect class="cls-1" x="4.55" y="91.22" width="1.14" height="24.65"/><rect class="cls-1" x="5.69" y="91.22" width="1.14" height="24.65"/><rect class="cls-1" x="6.83" y="91.22" width="1.14" height="24.65"/><rect class="cls-1" x="7.97" y="91.22" width="1.14" height="24.65"/><rect class="cls-1" x="9.1" y="91.22" width="1.14" height="24.65"/><rect class="cls-1" x="10.24" y="91.22" width="1.14" height="24.65"/><rect class="cls-1" x="11.38" y="91.22" width="1.14" height="24.65"/><rect class="cls-1" x="12.52" y="91.22" width="1.14" height="24.65"/><rect class="cls-1" x="13.66" y="91.22" width="1.14" height="24.65"/><rect class="cls-1" x="14.79" y="91.22" width="1.14" height="24.65"/><rect class="cls-1" x="15.93" y="91.22" width="1.14" height="24.65"/><rect class="cls-1" x="17.07" y="91.22" width="1.14" height="24.65"/><rect class="cls-1" x="18.21" y="91.22" width="1.14" height="24.65"/><rect class="cls-1" x="19.34" y="91.22" width="1.14" height="24.65"/><rect class="cls-1" x="20.48" y="91.22" width="1.14" height="24.65"/><rect class="cls-1" x="21.62" y="91.22" width="1.14" height="24.65"/><rect class="cls-1" x="22.76" y="91.22" width="1.14" height="24.65"/><rect class="cls-1" x="23.9" y="91.22" width="1.14" height="24.65"/><rect class="cls-1" x="25.03" y="91.22" width="1.14" height="24.65"/><rect class="cls-1" x="26.17" y="91.22" width="1.14" height="24.65"/><rect class="cls-1" x="27.31" y="91.22" width="1.14" height="24.65"/><rect class="cls-1" x="28.45" y="91.22" width="1.14" height="24.65"/><rect class="cls-1" x="29.59" y="91.22" width="1.14" height="24.65"/><rect class="cls-1" x="30.72" y="91.22" width="1.14" height="24.65"/><rect class="cls-1" x="31.86" y="91.22" width="1.14" height="24.65"/><rect class="cls-1" x="33" y="91.22" width="1.14" height="24.65"/><rect class="cls-1" x="34.14" y="91.22" width="1.14" height="24.65"/><rect class="cls-1" x="35.28" y="91.22" width="1.14" height="24.65"/><rect class="cls-1" x="36.41" y="91.22" width="1.14" height="24.65"/><rect class="cls-1" x="37.55" y="91.22" width="1.14" height="24.65"/><rect class="cls-1" x="38.69" y="91.22" width="1.14" height="24.65"/><rect class="cls-1" x="39.83" y="91.22" width="1.14" height="24.65"/><rect class="cls-1" x="40.97" y="91.22" width="1.14" height="24.65"/><rect class="cls-1" x="42.1" y="91.22" width="1.14" height="24.65"/><rect class="cls-1" x="43.24" y="91.22" width="1.14" height="24.65"/><rect class="cls-1" x="44.38" y="91.22" width="1.14" height="24.65"/><rect class="cls-1" x="45.52" y="91.22" width="1.14" height="24.65"/><rect class="cls-1" x="46.65" y="91.22" width="1.14" height="24.65"/><rect class="cls-1" x="47.79" y="91.22" width="1.14" height="24.65"/><rect class="cls-1" x="48.93" y="91.22" width="0.99" height="24.65"/><rect class="cls-1" x="31.37" y="11.32" width="0.49" height="76.57"/><rect class="cls-1" x="31.86" y="11.32" width="1.14" height="76.57"/><rect class="cls-1" x="33" y="11.32" width="1.14" height="76.57"/><rect class="cls-1" x="34.14" y="11.32" width="1.14" height="76.57"/><rect class="cls-1" x="35.28" y="11.32" width="1.14" height="76.57"/><rect class="cls-1" x="36.41" y="11.32" width="1.14" height="76.57"/><rect class="cls-1" x="37.55" y="11.32" width="1.14" height="76.57"/><rect class="cls-1" x="38.69" y="11.32" width="1.14" height="76.57"/><rect class="cls-1" x="39.83" y="11.32" width="1.14" height="76.57"/><rect class="cls-1" x="40.97" y="11.32" width="1.14" height="76.57"/><rect class="cls-1" x="42.1" y="11.32" width="1.14" height="76.57"/><rect class="cls-1" x="43.24" y="11.32" width="1.14" height="76.57"/><rect class="cls-1" x="44.38" y="11.32" width="1.14" height="76.57"/><rect class="cls-1" x="45.52" y="11.32" width="1.14" height="76.57"/><rect class="cls-1" x="46.65" y="11.32" width="1.14" height="76.57"/><rect class="cls-1" x="47.79" y="11.32" width="1.14" height="76.57"/><rect class="cls-1" x="48.93" y="11.32" width="1.14" height="76.57"/><rect class="cls-1" x="50.07" y="11.32" width="1.14" height="76.57"/><rect class="cls-1" x="51.21" y="11.32" width="1.14" height="76.57"/><rect class="cls-1" x="52.34" y="11.32" width="1.14" height="76.57"/><rect class="cls-1" x="53.48" y="11.32" width="1.14" height="76.57"/><rect class="cls-1" x="54.62" y="11.32" width="1.14" height="76.57"/><rect class="cls-1" x="55.76" y="11.32" width="1.14" height="76.57"/><rect class="cls-1" x="56.9" y="11.32" width="1.14" height="76.57"/><rect class="cls-1" x="58.03" y="11.32" width="1.14" height="76.57"/><rect class="cls-1" x="59.17" y="11.32" width="1.14" height="76.57"/><rect class="cls-1" x="60.31" y="11.32" width="1.14" height="76.57"/><rect class="cls-1" x="61.45" y="11.32" width="1.14" height="76.57"/><rect class="cls-1" x="62.59" y="11.32" width="1.14" height="76.57"/><rect class="cls-1" x="63.72" y="11.32" width="1.14" height="76.57"/><rect class="cls-1" x="64.86" y="11.32" width="1.14" height="76.57"/><rect class="cls-1" x="66" y="11.32" width="1.14" height="76.57"/><rect class="cls-1" x="67.14" y="11.32" width="1.14" height="76.57"/><rect class="cls-1" x="68.28" y="11.32" width="1.14" height="76.57"/><rect class="cls-1" x="69.41" y="11.32" width="1.14" height="76.57"/><rect class="cls-1" x="70.55" y="11.32" width="1.14" height="76.57"/><rect class="cls-1" x="71.69" y="11.32" width="1.14" height="76.57"/><rect class="cls-1" x="72.83" y="11.32" width="1.14" height="76.57"/><rect class="cls-1" x="73.96" y="11.32" width="1.14" height="76.57"/><rect class="cls-1" x="75.1" y="11.32" width="1.14" height="76.57"/><rect class="cls-1" x="76.24" y="11.32" width="1.14" height="76.57"/><rect class="cls-1" x="77.38" y="11.32" width="1.14" height="76.57"/><rect class="cls-1" x="78.52" y="11.32" width="1.14" height="76.57"/><rect class="cls-1" x="79.65" y="11.32" width="1.14" height="76.57"/><rect class="cls-1" x="80.79" y="11.32" width="1.14" height="76.57"/><rect class="cls-1" x="81.93" y="11.32" width="1.14" height="76.57"/><rect class="cls-1" x="83.07" y="11.32" width="1.14" height="76.57"/><rect class="cls-1" x="84.21" y="11.32" width="1.14" height="76.57"/><rect class="cls-1" x="85.34" y="11.32" width="1.14" height="76.57"/><rect class="cls-1" x="86.48" y="11.32" width="1.14" height="76.57"/><rect class="cls-1" x="87.62" y="11.32" width="0.49" height="76.57"/><rect class="cls-1" x="25.38" y="3.33" width="0.79" height="31.71"/><rect class="cls-1" x="26.17" y="3.33" width="1.14" height="31.71"/><rect class="cls-1" x="27.31" y="3.33" width="1.14" height="31.71"/><rect class="cls-1" x="28.45" y="3.33" width="1.14" height="31.71"/><rect class="cls-1" x="29.59" y="3.33" width="1.14" height="31.71"/><rect class="cls-1" x="30.72" y="3.33" width="1.14" height="31.71"/><rect class="cls-1" x="31.86" y="3.33" width="1.14" height="31.71"/><rect class="cls-1" x="33" y="3.33" width="1.14" height="31.71"/><rect class="cls-1" x="34.14" y="3.33" width="1.14" height="31.71"/><rect class="cls-1" x="35.28" y="3.33" width="1.14" height="31.71"/><rect class="cls-1" x="36.41" y="3.33" width="1.14" height="31.71"/><rect class="cls-1" x="37.55" y="3.33" width="1.14" height="31.71"/><rect class="cls-1" x="38.69" y="3.33" width="1.14" height="31.71"/><rect class="cls-1" x="39.83" y="3.33" width="1.14" height="31.71"/><rect class="cls-1" x="40.97" y="3.33" width="1.14" height="31.71"/><rect class="cls-1" x="42.1" y="3.33" width="1.14" height="31.71"/><rect class="cls-1" x="43.24" y="3.33" width="1.14" height="31.71"/><rect class="cls-1" x="44.38" y="3.33" width="1.14" height="31.71"/><rect class="cls-1" x="45.52" y="3.33" width="1.14" height="31.71"/><rect class="cls-1" x="46.65" y="3.33" width="1.14" height="31.71"/><rect class="cls-1" x="47.79" y="3.33" width="1.14" height="31.71"/><rect class="cls-1" x="48.93" y="3.33" width="1.14" height="31.71"/><rect class="cls-1" x="50.07" y="3.33" width="1.14" height="31.71"/><rect class="cls-1" x="51.21" y="3.33" width="1.14" height="31.71"/><rect class="cls-1" x="52.34" y="3.33" width="1.14" height="31.71"/><rect class="cls-1" x="53.48" y="3.33" width="1.14" height="31.71"/><rect class="cls-1" x="54.62" y="3.33" width="1.14" height="31.71"/><rect class="cls-1" x="55.76" y="3.33" width="1.14" height="31.71"/><rect class="cls-1" x="56.9" y="3.33" width="1.14" height="31.71"/><rect class="cls-1" x="58.03" y="3.33" width="1.14" height="31.71"/><rect class="cls-1" x="59.17" y="3.33" width="1.14" height="31.71"/><rect class="cls-1" x="60.31" y="3.33" width="1.14" height="31.71"/><rect class="cls-1" x="61.45" y="3.33" width="1.14" height="31.71"/><rect class="cls-1" x="62.59" y="3.33" width="1.14" height="31.71"/><rect class="cls-1" x="63.72" y="3.33" width="1.14" height="31.71"/><rect class="cls-1" x="64.86" y="3.33" width="1.14" height="31.71"/><rect class="cls-1" x="66" y="3.33" width="1.14" height="31.71"/><rect class="cls-1" x="67.14" y="3.33" width="1.14" height="31.71"/><rect class="cls-1" x="68.28" y="3.33" width="1.14" height="31.71"/><rect class="cls-1" x="69.41" y="3.33" width="1.14" height="31.71"/><rect class="cls-1" x="70.55" y="3.33" width="1.14" height="31.71"/><rect class="cls-1" x="71.69" y="3.33" width="1.14" height="31.71"/><rect class="cls-1" x="72.83" y="3.33" width="1.14" height="31.71"/><rect class="cls-1" x="73.96" y="3.33" width="1.14" height="31.71"/><rect class="cls-1" x="75.1" y="3.33" width="1.14" height="31.71"/><rect class="cls-1" x="76.24" y="3.33" width="1.14" height="31.71"/><rect class="cls-1" x="77.38" y="3.33" width="1.14" height="31.71"/><rect class="cls-1" x="78.52" y="3.33" width="1.14" height="31.71"/><rect class="cls-1" x="79.65" y="3.33" width="1.14" height="31.71"/><rect class="cls-1" x="80.79" y="3.33" width="1.14" height="31.71"/><rect class="cls-1" x="81.93" y="3.33" width="1.14" height="31.71"/><rect class="cls-1" x="83.07" y="3.33" width="1.14" height="31.71"/><rect class="cls-1" x="84.21" y="3.33" width="1.14" height="31.71"/><rect class="cls-1" x="85.34" y="3.33" width="1.14" height="31.71"/><rect class="cls-1" x="86.48" y="3.33" width="1.14" height="31.71"/><rect class="cls-1" x="87.62" y="3.33" width="1.14" height="31.71"/><rect class="cls-1" x="88.76" y="3.33" width="1.14" height="31.71"/><rect class="cls-1" x="89.9" y="3.33" width="1.14" height="31.71"/><rect class="cls-1" x="91.03" y="3.33" width="1.14" height="31.71"/><rect class="cls-1" x="92.17" y="3.33" width="1.14" height="31.71"/><rect class="cls-1" x="93.31" y="3.33" width="0.79" height="31.71"/><rect class="cls-1" x="19.35" y="37.29" width="1.13" height="20.45"/><rect class="cls-1" x="20.48" y="37.29" width="1.14" height="20.45"/><rect class="cls-1" x="21.62" y="37.29" width="1.14" height="20.45"/><rect class="cls-1" x="22.76" y="37.29" width="1.14" height="20.45"/><rect class="cls-1" x="23.9" y="37.29" width="1.14" height="20.45"/><rect class="cls-1" x="25.03" y="37.29" width="1.14" height="20.45"/><rect class="cls-1" x="26.17" y="37.29" width="1.14" height="20.45"/><rect class="cls-1" x="27.31" y="37.29" width="0.53" height="20.45"/><rect class="cls-1" x="91.45" y="37.29" width="0.73" height="20.45"/><rect class="cls-1" x="92.17" y="37.29" width="1.14" height="20.45"/><rect class="cls-1" x="93.31" y="37.29" width="1.14" height="20.45"/><rect class="cls-1" x="94.45" y="37.29" width="1.14" height="20.45"/><rect class="cls-1" x="95.59" y="37.29" width="1.14" height="20.45"/><rect class="cls-1" x="96.72" y="37.29" width="1.14" height="20.45"/><rect class="cls-1" x="97.86" y="37.29" width="1.14" height="20.45"/><rect class="cls-1" x="99" y="37.29" width="0.93" height="20.45"/><rect class="cls-1" x="87.84" y="60.22" width="0.91" height="10.02"/><rect class="cls-1" x="88.76" y="60.22" width="1.14" height="10.02"/><rect class="cls-1" x="89.9" y="60.22" width="1.14" height="10.02"/><rect class="cls-1" x="91.03" y="60.22" width="1.14" height="10.02"/><rect class="cls-1" x="92.17" y="60.22" width="1.14" height="10.02"/><rect class="cls-1" x="93.31" y="60.22" width="0.75" height="10.02"/><rect class="cls-1" x="69.56" y="91.04" width="0.99" height="24.84"/><rect class="cls-1" x="70.55" y="91.04" width="1.14" height="24.84"/><rect class="cls-1" x="71.69" y="91.04" width="1.14" height="24.84"/><rect class="cls-1" x="72.83" y="91.04" width="1.14" height="24.84"/><rect class="cls-1" x="73.96" y="91.04" width="1.14" height="24.84"/><rect class="cls-1" x="75.1" y="91.04" width="1.14" height="24.84"/><rect class="cls-1" x="76.24" y="91.04" width="1.14" height="24.84"/><rect class="cls-1" x="77.38" y="91.04" width="1.14" height="24.84"/><rect class="cls-1" x="78.52" y="91.04" width="1.14" height="24.84"/><rect class="cls-1" x="79.65" y="91.04" width="1.14" height="24.84"/><rect class="cls-1" x="80.79" y="91.04" width="1.14" height="24.84"/><rect class="cls-1" x="81.93" y="91.04" width="1.14" height="24.84"/><rect class="cls-1" x="83.07" y="91.04" width="1.14" height="24.84"/><rect class="cls-1" x="84.21" y="91.04" width="1.14" height="24.84"/><rect class="cls-1" x="85.34" y="91.04" width="1.14" height="24.84"/><rect class="cls-1" x="86.48" y="91.04" width="1.14" height="24.84"/><rect class="cls-1" x="87.62" y="91.04" width="1.14" height="24.84"/><rect class="cls-1" x="88.76" y="91.04" width="1.14" height="24.84"/><rect class="cls-1" x="89.9" y="91.04" width="1.14" height="24.84"/><rect class="cls-1" x="91.03" y="91.04" width="1.14" height="24.84"/><rect class="cls-1" x="92.17" y="91.04" width="1.14" height="24.84"/><rect class="cls-1" x="93.31" y="91.04" width="1.14" height="24.84"/><rect class="cls-1" x="94.45" y="91.04" width="1.14" height="24.84"/><rect class="cls-1" x="95.59" y="91.04" width="1.14" height="24.84"/><rect class="cls-1" x="96.72" y="91.04" width="1.14" height="24.84"/><rect class="cls-1" x="97.86" y="91.04" width="1.14" height="24.84"/><rect class="cls-1" x="99" y="91.04" width="1.14" height="24.84"/><rect class="cls-1" x="100.14" y="91.04" width="1.14" height="24.84"/><rect class="cls-1" x="101.27" y="91.04" width="1.14" height="24.84"/><rect class="cls-1" x="102.41" y="91.04" width="1.14" height="24.84"/><rect class="cls-1" x="103.55" y="91.04" width="1.14" height="24.84"/><rect class="cls-1" x="104.69" y="91.04" width="1.14" height="24.84"/><rect class="cls-1" x="105.83" y="91.04" width="1.14" height="24.84"/><rect class="cls-1" x="106.96" y="91.04" width="1.14" height="24.84"/><rect class="cls-1" x="108.1" y="91.04" width="1.14" height="24.84"/><rect class="cls-1" x="109.24" y="91.04" width="1.14" height="24.84"/><rect class="cls-1" x="110.38" y="91.04" width="1.14" height="24.84"/><rect class="cls-1" x="111.52" y="91.04" width="1.14" height="24.84"/><rect class="cls-1" x="112.65" y="91.04" width="1.14" height="24.84"/><rect class="cls-1" x="113.79" y="91.04" width="1.14" height="24.84"/><rect class="cls-1" x="114.93" y="91.04" width="1.14" height="24.84"/><rect class="cls-1" x="116.07" y="91.04" width="0.08" height="24.84"/><rect class="cls-1" x="62.31" y="80.92" width="0.27" height="23.25"/><rect class="cls-1" x="62.59" y="80.92" width="1.14" height="23.25"/><rect class="cls-1" x="63.72" y="80.92" width="1.14" height="23.25"/><rect class="cls-1" x="64.86" y="80.92" width="1.14" height="23.25"/><rect class="cls-1" x="66" y="80.92" width="1.14" height="23.25"/><rect class="cls-1" x="67.14" y="80.92" width="1.14" height="23.25"/><rect class="cls-1" x="68.28" y="80.92" width="1.14" height="23.25"/><rect class="cls-1" x="69.41" y="80.92" width="1.14" height="23.25"/><rect class="cls-1" x="70.55" y="80.92" width="1.14" height="23.25"/><rect class="cls-1" x="71.69" y="80.92" width="1.14" height="23.25"/><rect class="cls-1" x="72.83" y="80.92" width="1.14" height="23.25"/><rect class="cls-1" x="73.96" y="80.92" width="1.14" height="23.25"/><rect class="cls-1" x="75.1" y="80.92" width="1.14" height="23.25"/><rect class="cls-1" x="76.24" y="80.92" width="1.14" height="23.25"/><rect class="cls-1" x="77.38" y="80.92" width="1.14" height="23.25"/><rect class="cls-1" x="78.52" y="80.92" width="1.14" height="23.25"/><rect class="cls-1" x="79.65" y="80.92" width="1.14" height="23.25"/><rect class="cls-1" x="80.79" y="80.92" width="1.14" height="23.25"/><rect class="cls-1" x="51.8" y="109.21" width="0.54" height="6.66"/><rect class="cls-1" x="52.34" y="109.21" width="1.14" height="6.66"/><rect class="cls-1" x="53.48" y="109.21" width="1.14" height="6.66"/><rect class="cls-1" x="54.62" y="109.21" width="1.14" height="6.66"/><rect class="cls-1" x="55.76" y="109.21" width="1.14" height="6.66"/><rect class="cls-1" x="56.9" y="109.21" width="1.14" height="6.66"/><rect class="cls-1" x="58.03" y="109.21" width="1.14" height="6.66"/><rect class="cls-1" x="59.17" y="109.21" width="1.14" height="6.66"/><rect class="cls-1" x="60.31" y="109.21" width="1.14" height="6.66"/><rect class="cls-1" x="61.45" y="109.21" width="1.14" height="6.66"/><rect class="cls-1" x="62.59" y="109.21" width="1.14" height="6.66"/><rect class="cls-1" x="63.72" y="109.21" width="1.14" height="6.66"/><rect class="cls-1" x="64.86" y="109.21" width="1.14" height="6.66"/><rect class="cls-1" x="66" y="109.21" width="1.14" height="6.66"/><rect class="cls-1" x="67.14" y="109.21" width="0.5" height="6.66"/><rect class="cls-1" x="54.35" y="93.76" width="0.27" height="12.13"/><rect class="cls-1" x="54.62" y="93.76" width="1.14" height="12.13"/><rect class="cls-1" x="55.76" y="93.76" width="1.14" height="12.13"/><rect class="cls-1" x="56.9" y="93.76" width="1.14" height="12.13"/><rect class="cls-1" x="58.03" y="93.76" width="1.14" height="12.13"/><rect class="cls-1" x="59.17" y="93.76" width="1.14" height="12.13"/><rect class="cls-1" x="60.31" y="93.76" width="1.14" height="12.13"/><rect class="cls-1" x="61.45" y="93.76" width="1.14" height="12.13"/><rect class="cls-1" x="62.59" y="93.76" width="1.14" height="12.13"/><rect class="cls-1" x="63.72" y="93.76" width="1.14" height="12.13"/><rect class="cls-1" x="64.86" y="93.76" width="0.2" height="12.13"/><rect class="cls-1" x="37.55" y="80.92" width="1.14" height="23.25"/><rect class="cls-1" x="38.69" y="80.92" width="1.14" height="23.25"/><rect class="cls-1" x="39.83" y="80.92" width="1.14" height="23.25"/><rect class="cls-1" x="40.97" y="80.92" width="1.14" height="23.25"/><rect class="cls-1" x="42.1" y="80.92" width="1.14" height="23.25"/><rect class="cls-1" x="43.24" y="80.92" width="1.14" height="23.25"/><rect class="cls-1" x="44.38" y="80.92" width="1.14" height="23.25"/><rect class="cls-1" x="45.52" y="80.92" width="1.14" height="23.25"/><rect class="cls-1" x="46.65" y="80.92" width="1.14" height="23.25"/><rect class="cls-1" x="47.79" y="80.92" width="1.14" height="23.25"/><rect class="cls-1" x="48.93" y="80.92" width="1.14" height="23.25"/><rect class="cls-1" x="50.07" y="80.92" width="1.14" height="23.25"/><rect class="cls-1" x="51.21" y="80.92" width="1.14" height="23.25"/><rect class="cls-1" x="52.34" y="80.92" width="1.14" height="23.25"/><rect class="cls-1" x="53.48" y="80.92" width="1.14" height="23.25"/><rect class="cls-1" x="54.62" y="80.92" width="1.14" height="23.25"/><rect class="cls-1" x="55.76" y="80.92" width="1.14" height="23.25"/><rect class="cls-1" x="56.9" y="80.92" width="0.27" height="23.25"/><rect class="cls-1" width="1.14" height="119.2"/><rect class="cls-1" x="1.14" width="1.14" height="119.2"/><rect class="cls-1" x="2.28" width="1.14" height="119.2"/><rect class="cls-1" x="3.41" width="1.14" height="119.2"/><rect class="cls-1" x="4.55" width="1.14" height="119.2"/><rect class="cls-1" x="5.69" width="1.14" height="119.2"/><rect class="cls-1" x="6.83" width="1.14" height="119.2"/><rect class="cls-1" x="7.97" width="1.14" height="119.2"/><rect class="cls-1" x="9.1" width="1.14" height="119.2"/><rect class="cls-1" x="10.24" width="1.14" height="119.2"/><rect class="cls-1" x="11.38" width="1.14" height="119.2"/><rect class="cls-1" x="12.52" width="1.14" height="119.2"/><rect class="cls-1" x="13.66" width="1.14" height="119.2"/><rect class="cls-1" x="14.79" width="1.14" height="119.2"/><rect class="cls-1" x="15.93" width="1.14" height="119.2"/><rect class="cls-1" x="17.07" width="1.14" height="119.2"/><rect class="cls-1" x="18.21" width="1.14" height="119.2"/><rect class="cls-1" x="19.34" width="1.14" height="119.2"/><rect class="cls-1" x="20.48" width="1.14" height="119.2"/><rect class="cls-1" x="21.62" width="1.14" height="119.2"/><rect class="cls-1" x="22.76" width="1.14" height="119.2"/><rect class="cls-1" x="23.9" width="1.14" height="119.2"/><rect class="cls-1" x="25.03" width="1.14" height="119.2"/><rect class="cls-1" x="26.17" width="1.14" height="119.2"/><rect class="cls-1" x="27.31" width="1.14" height="119.2"/><rect class="cls-1" x="28.45" width="1.14" height="119.2"/><rect class="cls-1" x="29.59" width="1.14" height="119.2"/><rect class="cls-1" x="30.72" width="1.14" height="119.2"/><rect class="cls-1" x="31.86" width="1.14" height="119.2"/><rect class="cls-1" x="33" width="1.14" height="119.2"/><rect class="cls-1" x="34.14" width="1.14" height="119.2"/><rect class="cls-1" x="35.28" width="1.14" height="119.2"/><rect class="cls-1" x="36.41" width="1.14" height="119.2"/><rect class="cls-1" x="37.55" width="1.14" height="119.2"/><rect class="cls-1" x="38.69" width="1.14" height="119.2"/><rect class="cls-1" x="39.83" width="1.14" height="119.2"/><rect class="cls-1" x="40.97" width="1.14" height="119.2"/><rect class="cls-1" x="42.1" width="1.14" height="119.2"/><rect class="cls-1" x="43.24" width="1.14" height="119.2"/><rect class="cls-1" x="44.38" width="1.14" height="119.2"/><rect class="cls-1" x="45.52" width="1.14" height="119.2"/><rect class="cls-1" x="46.65" width="1.14" height="119.2"/><rect class="cls-1" x="47.79" width="1.14" height="119.2"/><rect class="cls-1" x="48.93" width="1.14" height="119.2"/><rect class="cls-1" x="50.07" width="1.14" height="119.2"/><rect class="cls-1" x="51.21" width="1.14" height="119.2"/><rect class="cls-1" x="52.34" width="1.14" height="119.2"/><rect class="cls-1" x="53.48" width="1.14" height="119.2"/><rect class="cls-1" x="54.62" width="1.14" height="119.2"/><rect class="cls-1" x="55.76" width="1.14" height="119.2"/><rect class="cls-1" x="56.9" width="1.14" height="119.2"/><rect class="cls-1" x="58.03" width="1.14" height="119.2"/><rect class="cls-1" x="59.17" width="1.14" height="119.2"/><rect class="cls-1" x="60.31" width="1.14" height="119.2"/><rect class="cls-1" x="61.45" width="1.14" height="119.2"/><rect class="cls-1" x="62.59" width="1.14" height="119.2"/><rect class="cls-1" x="63.72" width="1.14" height="119.2"/><rect class="cls-1" x="64.86" width="1.14" height="119.2"/><rect class="cls-1" x="66" width="1.14" height="119.2"/><rect class="cls-1" x="67.14" width="1.14" height="119.2"/><rect class="cls-1" x="68.28" width="1.14" height="119.2"/><rect class="cls-1" x="69.41" width="1.14" height="119.2"/><rect class="cls-1" x="70.55" width="1.14" height="119.2"/><rect class="cls-1" x="71.69" width="1.14" height="119.2"/><rect class="cls-1" x="72.83" width="1.14" height="119.2"/><rect class="cls-1" x="73.96" width="1.14" height="119.2"/><rect class="cls-1" x="75.1" width="1.14" height="119.2"/><rect class="cls-1" x="76.24" width="1.14" height="119.2"/><rect class="cls-1" x="77.38" width="1.14" height="119.2"/><rect class="cls-1" x="78.52" width="1.14" height="119.2"/><rect class="cls-1" x="79.65" width="1.14" height="119.2"/><rect class="cls-1" x="80.79" width="1.14" height="119.2"/><rect class="cls-1" x="81.93" width="1.14" height="119.2"/><rect class="cls-1" x="83.07" width="1.14" height="119.2"/><rect class="cls-1" x="84.21" width="1.14" height="119.2"/><rect class="cls-1" x="85.34" width="1.14" height="119.2"/><rect class="cls-1" x="86.48" width="1.14" height="119.2"/><rect class="cls-1" x="87.62" width="1.14" height="119.2"/><rect class="cls-1" x="88.76" width="1.14" height="119.2"/><rect class="cls-1" x="89.9" width="1.14" height="119.2"/><rect class="cls-1" x="91.03" width="1.14" height="119.2"/><rect class="cls-1" x="92.17" width="1.14" height="119.2"/><rect class="cls-1" x="93.31" width="1.14" height="119.2"/><rect class="cls-1" x="94.45" width="1.14" height="119.2"/><rect class="cls-1" x="95.59" width="1.14" height="119.2"/><rect class="cls-1" x="96.72" width="1.14" height="119.2"/><rect class="cls-1" x="97.86" width="1.14" height="119.2"/><rect class="cls-1" x="99" width="1.14" height="119.2"/><rect class="cls-1" x="100.14" width="1.14" height="119.2"/><rect class="cls-1" x="101.27" width="1.14" height="119.2"/><rect class="cls-1" x="102.41" width="1.14" height="119.2"/><rect class="cls-1" x="103.55" width="1.14" height="119.2"/><rect class="cls-1" x="104.69" width="1.14" height="119.2"/><rect class="cls-1" x="105.83" width="1.14" height="119.2"/><rect class="cls-1" x="106.96" width="1.14" height="119.2"/><rect class="cls-1" x="108.1" width="1.14" height="119.2"/><rect class="cls-1" x="109.24" width="1.14" height="119.2"/><rect class="cls-1" x="110.38" width="1.14" height="119.2"/><rect class="cls-1" x="111.52" width="1.14" height="119.2"/><rect class="cls-1" x="112.65" width="1.14" height="119.2"/><rect class="cls-1" x="113.79" width="1.14" height="119.2"/><rect class="cls-1" x="114.93" width="1.14" height="119.2"/><rect class="cls-1" x="116.07" width="1.14" height="119.2"/><rect class="cls-1" x="117.21" width="1.14" height="119.2"/><rect class="cls-1" x="118.34" width="1.14" height="119.2"/></g></g></svg>